# xmcd CD database file
#
# Track frame offsets:
#	150
#	26599
#	52895
#	77936
#	100681
#	130974
#	142826
#	152695
#	160717
#
# Disc length: 2580 seconds
#
# Revision: 0
# Processed by: cddbd v1.5.2PL0 Copyright (c) Steve Scherf et al.
# Submitted via: CDex 1.70beta2
#
DISCID=640a1209
DTITLE=Clifford White - Intuition
DYEAR=1991
DGENRE=New Age
TTITLE0=Intuition
TTITLE1=On Wings Of Love
TTITLE2=Sky Wave
TTITLE3=Night Wind
TTITLE4=On Solar Wind
TTITLE5=Liquid Life
TTITLE6=Reflections
TTITLE7=Involution
TTITLE8=Eastern Dream
EXTD=YEAR: 1991
EXTT0=
EXTT1=
EXTT2=
EXTT3=
EXTT4=
EXTT5=
EXTT6=
EXTT7=
EXTT8=
PLAYORDER=
